<svg xmlns="http://www.w3.org/2000/svg" version="1.1" xmlns:xlink="http://www.w3.org/1999/xlink" xmlns:svgjs="http://svgjs.dev/svgjs" width="128" height="128" viewBox="0 0 128 128"><g transform="matrix(0.8046875,0,0,0.8046875,12.411840748212605,12.814873242367192)"><svg viewBox="0 0 98 98" data-background-color="#000000" preserveAspectRatio="xMidYMid meet" height="127" width="128" xmlns="http://www.w3.org/2000/svg" xmlns:xlink="http://www.w3.org/1999/xlink"><g id="tight-bounds" transform="matrix(1,0,0,1,0.0838796764579115,0.0838796764579115)"><svg viewBox="0 0 97.83224064708416 97.83224064708416" height="97.83224064708416" width="97.83224064708416"><rect width="97.83224064708416" height="97.83224064708416" fill="url(#b4f6eead-462d-41f9-bfeb-a4d3fb909ecb)" mask="url(#a37b8a35-d22c-40c8-8c58-387e2e32c4c8)" data-fill-palette-color="tertiary"></rect><g><svg></svg></g><g><svg viewBox="0 0 97.83224064708416 97.83224064708416" height="97.83224064708416" width="97.83224064708416"><g><path d="M0 48.916c0-27.016 21.9-48.916 48.916-48.916 27.016 0 48.916 21.9 48.916 48.916 0 27.016-21.9 48.916-48.916 48.916-27.016 0-48.916-21.9-48.916-48.916zM48.916 94.46c25.153 0 45.543-20.39 45.544-45.544 0-25.153-20.39-45.543-45.544-45.543-25.153 0-45.543 20.39-45.543 45.543 0 25.153 20.39 45.543 45.543 45.544z" data-fill-palette-color="tertiary" fill="url(#b4f6eead-462d-41f9-bfeb-a4d3fb909ecb)" stroke="transparent"></path><ellipse rx="46.9594755106004" ry="46.9594755106004" cx="48.91612032354208" cy="48.91612032354208" fill="url(#b4f6eead-462d-41f9-bfeb-a4d3fb909ecb)" stroke="transparent" stroke-width="0" fill-opacity="1" data-fill-palette-color="tertiary"></ellipse></g><g transform="matrix(1,0,0,1,23.475393915029343,30.21626407994795)"><svg viewBox="0 0 50.881452817025476 37.39971248718826" height="37.39971248718826" width="50.881452817025476"><g><svg viewBox="0 0 50.881452817025476 37.39971248718826" height="37.39971248718826" width="50.881452817025476"><g><svg viewBox="0 0 50.881452817025476 37.39971248718826" height="37.39971248718826" width="50.881452817025476"><g id="textblocktransform"><svg viewBox="0 0 50.881452817025476 37.39971248718826" height="37.39971248718826" width="50.881452817025476" id="textblock"><g><svg viewBox="0 0 50.881452817025476 37.39971248718826" height="37.39971248718826" width="50.881452817025476"><g><svg viewBox="0 0 50.881452817025476 37.39971248718826" height="37.39971248718826" width="50.881452817025476"><g><svg xmlns="http://www.w3.org/2000/svg" xmlns:xlink="http://www.w3.org/1999/xlink" version="1.1" x="0" y="0" viewBox="4.660196892413095 20.351000000000003 90.67443900708136 66.649" enable-background="new 0 0 100 100" xml:space="preserve" height="37.39971248718826" width="50.881452817025476" class="icon-icon-0" data-fill-palette-color="quaternary" id="icon-0"><path d="M94.05 51.572L53.179 21.701c-1.806-1.8-4.998-1.8-6.805 0L6.192 50.883c-1.879 1.879-2.1 4.471-0.269 6.4 0.531 0.555 1.218 0.885 1.958 1.047 1.08 0.311 2.246 0.191 3.253-0.354 0.083-0.035 0.156-0.084 0.237-0.125 0.033-0.023 0.068-0.037 0.102-0.057 0.48-0.252 1.107-0.557 1.494-0.945L18 53.432v30.125C18 85.066 19.063 87 20.575 87h58.83C80.917 87 83 85.066 83 83.561V53.432l4.489 3.59c0.094 0.088 0.048 0.158 0.144 0.236l0.364 0.438c1.69 1.691 4.396 1.691 6.087 0S95.739 53.264 94.05 51.572zM49 54h15.101C66.115 54 68 54.729 68 56.743V64H49V54zM37.703 49.552c2.374 0 4.388 2.014 4.388 4.389 0 2.445-2.014 4.387-4.388 4.387s-4.388-1.941-4.388-4.387C33.315 51.565 35.329 49.552 37.703 49.552zM35.329 60H43v-4.837c0-1.152 0.922-2.016 2-2.016 1.152 0 2 0.863 2 2.016v5.609C47 62.067 45.759 64 44.536 64h-9.207c-1.15 0-2.014-0.885-2.014-2.035C33.315 60.885 34.179 60 35.329 60zM74 79h-4v-7H32v7h-4V50.984c0-1.295 0.706-2.445 2-2.445s2 1.15 2 2.445V66h38v-9.045c0-1.295 0.741-2.375 1.964-2.375 1.295 0 2.036 1.08 2.036 2.375V79z" fill="#000000" data-fill-palette-color="quaternary"></path></svg></g></svg></g></svg></g></svg></g></svg></g></svg></g></svg></g></svg></g><defs></defs><mask id="a37b8a35-d22c-40c8-8c58-387e2e32c4c8"><g id="SvgjsG2128"><svg viewBox="0 0 97.83224064708416 97.83224064708416" height="97.83224064708416" width="97.83224064708416"><g><svg></svg></g><g><svg viewBox="0 0 97.83224064708416 97.83224064708416" height="97.83224064708416" width="97.83224064708416"><g><path d="M0 48.916c0-27.016 21.9-48.916 48.916-48.916 27.016 0 48.916 21.9 48.916 48.916 0 27.016-21.9 48.916-48.916 48.916-27.016 0-48.916-21.9-48.916-48.916zM48.916 94.46c25.153 0 45.543-20.39 45.544-45.544 0-25.153-20.39-45.543-45.544-45.543-25.153 0-45.543 20.39-45.543 45.543 0 25.153 20.39 45.543 45.543 45.544z" fill="white" stroke="transparent"></path><ellipse rx="46.9594755106004" ry="46.9594755106004" cx="48.91612032354208" cy="48.91612032354208" fill="white" stroke="transparent" stroke-width="0" fill-opacity="1"></ellipse></g><g transform="matrix(1,0,0,1,23.475393915029343,30.21626407994795)"><svg viewBox="0 0 50.881452817025476 37.39971248718826" height="37.39971248718826" width="50.881452817025476"><g><svg viewBox="0 0 50.881452817025476 37.39971248718826" height="37.39971248718826" width="50.881452817025476"><g><svg viewBox="0 0 50.881452817025476 37.39971248718826" height="37.39971248718826" width="50.881452817025476"><g id="SvgjsG2127"><svg viewBox="0 0 50.881452817025476 37.39971248718826" height="37.39971248718826" width="50.881452817025476" id="SvgjsSvg2126"><g><svg viewBox="0 0 50.881452817025476 37.39971248718826" height="37.39971248718826" width="50.881452817025476"><g><svg viewBox="0 0 50.881452817025476 37.39971248718826" height="37.39971248718826" width="50.881452817025476"><g><svg xmlns="http://www.w3.org/2000/svg" xmlns:xlink="http://www.w3.org/1999/xlink" version="1.1" x="0" y="0" viewBox="4.660196892413095 20.351000000000003 90.67443900708136 66.649" enable-background="new 0 0 100 100" xml:space="preserve" height="37.39971248718826" width="50.881452817025476" class="icon-icon-0" data-fill-palette-color="quaternary" id="SvgjsSvg2125"><path d="M94.05 51.572L53.179 21.701c-1.806-1.8-4.998-1.8-6.805 0L6.192 50.883c-1.879 1.879-2.1 4.471-0.269 6.4 0.531 0.555 1.218 0.885 1.958 1.047 1.08 0.311 2.246 0.191 3.253-0.354 0.083-0.035 0.156-0.084 0.237-0.125 0.033-0.023 0.068-0.037 0.102-0.057 0.48-0.252 1.107-0.557 1.494-0.945L18 53.432v30.125C18 85.066 19.063 87 20.575 87h58.83C80.917 87 83 85.066 83 83.561V53.432l4.489 3.59c0.094 0.088 0.048 0.158 0.144 0.236l0.364 0.438c1.69 1.691 4.396 1.691 6.087 0S95.739 53.264 94.05 51.572zM49 54h15.101C66.115 54 68 54.729 68 56.743V64H49V54zM37.703 49.552c2.374 0 4.388 2.014 4.388 4.389 0 2.445-2.014 4.387-4.388 4.387s-4.388-1.941-4.388-4.387C33.315 51.565 35.329 49.552 37.703 49.552zM35.329 60H43v-4.837c0-1.152 0.922-2.016 2-2.016 1.152 0 2 0.863 2 2.016v5.609C47 62.067 45.759 64 44.536 64h-9.207c-1.15 0-2.014-0.885-2.014-2.035C33.315 60.885 34.179 60 35.329 60zM74 79h-4v-7H32v7h-4V50.984c0-1.295 0.706-2.445 2-2.445s2 1.15 2 2.445V66h38v-9.045c0-1.295 0.741-2.375 1.964-2.375 1.295 0 2.036 1.08 2.036 2.375V79z" fill="black"></path></svg></g></svg></g></svg></g></svg></g></svg></g></svg></g></svg></g></svg></g><defs><mask></mask></defs></svg><rect width="97.83224064708416" height="97.83224064708416" fill="black" stroke="none" visibility="hidden"></rect></g></mask><linearGradient x1="0" x2="1" y1="0.578" y2="0.595" id="b4f6eead-462d-41f9-bfeb-a4d3fb909ecb"><stop stop-color="#6ee2f5" offset="0"></stop><stop stop-color="#6454f0" offset="1"></stop></linearGradient></svg><rect width="97.83224064708416" height="97.83224064708416" fill="none" stroke="none" visibility="hidden"></rect></g></svg></g></svg>