<svg xmlns="http://www.w3.org/2000/svg" version="1.1" xmlns:xlink="http://www.w3.org/1999/xlink" xmlns:svgjs="http://svgjs.dev/svgjs" width="1500" height="458" viewBox="0 0 1500 458"><g transform="matrix(1,0,0,1,-0.9090909090909918,-0.7631462698705604)"><svg viewBox="0 0 396 121" data-background-color="#121212" preserveAspectRatio="xMidYMid meet" height="458" width="1500" xmlns="http://www.w3.org/2000/svg" xmlns:xlink="http://www.w3.org/1999/xlink"><g id="tight-bounds" transform="matrix(1,0,0,1,0.2400000000000091,0.20161724597016928)"><svg viewBox="0 0 395.52 120.59676550805969" height="120.59676550805969" width="395.52"><g><svg viewBox="0 0 659.217680217857 200.99999999999994" height="120.59676550805969" width="395.52"><g><rect width="8.414212360714286" height="200.99999999999994" x="253.7767339285714" y="0" fill="#e1410d" opacity="1" stroke-width="0" stroke="transparent" fill-opacity="1" class="rect-qz-0" data-fill-palette-color="primary" rx="1%" id="qz-0" data-palette-color="#e1410d"></rect></g><g transform="matrix(1,0,0,1,284.2176802178571,0.4999999999999858)"><svg viewBox="0 0 374.99999999999994 199.99999999999997" height="199.99999999999997" width="374.99999999999994"><g id="textblocktransform"><svg viewBox="0 0 374.99999999999994 199.99999999999997" height="199.99999999999997" width="374.99999999999994" id="textblock"><g><svg viewBox="0 0 374.99999999999994 199.99999999999997" height="199.99999999999997" width="374.99999999999994"><g transform="matrix(1,0,0,1,0,0)"><svg width="374.99999999999994" viewBox="1.8499999999999996 -33.45 168.14999999999998 87.7" height="199.99999999999997" data-palette-color="#e1410d"><svg></svg><svg></svg><g class="wordmark-text-0" data-fill-palette-color="primary" id="text-0"><path d="M11.75 0v-27.75h-9.9v-2.95h22.95v2.95h-9.9v27.75zM30.65 0v-33.45h3v9.55l-0.15 4h0.3c2.6-2.6 5.483-3.9 8.65-3.9v0c2.1 0 3.66 0.423 4.68 1.27 1.013 0.853 1.52 2.263 1.52 4.23v0 18.3h-3v-20.5c-1.033-0.367-2.283-0.55-3.75-0.55v0c-1.667 0-3.207 0.307-4.62 0.92-1.42 0.62-2.63 1.463-3.63 2.53v0 17.6zM65.35 0.45c-6.733 0-10.1-4-10.1-12v0c0-3.833 0.86-6.833 2.58-9 1.713-2.167 4.22-3.25 7.52-3.25v0c2.733 0 4.833 0.817 6.3 2.45 1.467 1.633 2.2 3.9 2.2 6.8v0c0 0.333-0.033 0.867-0.1 1.6v0l-2.55 2.55-13-0.1c0.067 2.767 0.693 4.84 1.88 6.22 1.18 1.387 2.987 2.08 5.42 2.08v0c1.467 0 2.717-0.16 3.75-0.48 1.033-0.313 2.1-0.803 3.2-1.47v0l1 2.35c-1.233 0.733-2.457 1.29-3.67 1.67-1.22 0.387-2.697 0.58-4.43 0.58zM58.15-12.75l12.6-0.2c0.2-0.8 0.3-1.6 0.3-2.4v0c0-1.8-0.5-3.217-1.5-4.25-1-1.033-2.467-1.55-4.4-1.55v0c-2.467 0-4.217 0.683-5.25 2.05-1.033 1.367-1.617 3.483-1.75 6.35z" fill="#e1410d" fill-rule="nonzero" stroke="none" stroke-width="1" stroke-linecap="butt" stroke-linejoin="miter" stroke-miterlimit="10" stroke-dasharray="" stroke-dashoffset="0" font-family="none" font-weight="none" font-size="none" text-anchor="none" style="mix-blend-mode: normal" data-fill-palette-color="primary" opacity="1"></path><path transform="translate(0,44.8)" d="M5.35 0l-3.35-0.35c1.4-5.167 2.95-10.443 4.65-15.83 1.7-5.38 3.367-10.22 5-14.52v0h6.25c1.633 4.3 3.3 9.14 5 14.52 1.7 5.387 3.25 10.663 4.65 15.83v0l-3.35 0.35c-0.767-3.1-1.717-6.583-2.85-10.45v0h-13.2c-1.267 4.567-2.2 8.05-2.8 10.45zM9-13.25h11.45c-1.967-6.667-3.5-11.467-4.6-14.4v0h-2.2c-1.267 3.433-2.817 8.233-4.65 14.4zM33.55 0v-23.4h2.5l0.3 3.4h0.35c2.6-2.533 5.367-3.8 8.3-3.8v0c1.833 0 3.223 0.29 4.17 0.87 0.953 0.587 1.547 1.563 1.78 2.93v0h0.35c2.533-2.533 5.317-3.8 8.35-3.8v0c2.133 0 3.7 0.4 4.7 1.2 1 0.8 1.5 2.233 1.5 4.3v0 18.3h-3.05v-20.5c-1.1-0.367-2.317-0.55-3.65-0.55v0c-1.5 0-2.94 0.273-4.32 0.82-1.387 0.553-2.597 1.347-3.63 2.38v0 17.85h-3v-20.5c-1.1-0.367-2.317-0.55-3.65-0.55v0c-1.533 0-2.993 0.283-4.38 0.85-1.38 0.567-2.587 1.367-3.62 2.4v0 17.8zM82.5 0.45c-6.733 0-10.1-4-10.1-12v0c0-3.833 0.86-6.833 2.58-9 1.713-2.167 4.22-3.25 7.52-3.25v0c2.733 0 4.833 0.817 6.3 2.45 1.467 1.633 2.2 3.9 2.2 6.8v0c0 0.333-0.033 0.867-0.1 1.6v0l-2.55 2.55-13-0.1c0.067 2.767 0.693 4.84 1.88 6.22 1.18 1.387 2.987 2.08 5.42 2.08v0c1.467 0 2.717-0.16 3.75-0.48 1.033-0.313 2.1-0.803 3.2-1.47v0l1 2.35c-1.233 0.733-2.457 1.29-3.67 1.67-1.22 0.387-2.697 0.58-4.43 0.58zM75.3-12.75l12.6-0.2c0.2-0.8 0.3-1.6 0.3-2.4v0c0-1.8-0.5-3.217-1.5-4.25-1-1.033-2.467-1.55-4.4-1.55v0c-2.467 0-4.217 0.683-5.25 2.05-1.033 1.367-1.617 3.483-1.75 6.35zM97.4 0v-23.4h2.55l0.25 3.5h0.35c2.6-2.6 5.483-3.9 8.65-3.9v0c2.1 0 3.66 0.423 4.68 1.27 1.013 0.853 1.52 2.263 1.52 4.23v0 18.3h-3v-20.5c-1.033-0.367-2.283-0.55-3.75-0.55v0c-1.667 0-3.207 0.307-4.62 0.92-1.42 0.62-2.63 1.463-3.63 2.53v0 17.6zM123.2-27.7v-4.65h3.15v4.65zM123.25 0v-23.35h2.95v23.35zM142.4 0.3c-1.233 0-2.3-0.117-3.2-0.35v0c-2.3-1.267-3.45-2.817-3.45-4.65v0-16.15h-4.1l0.4-2.55h3.7v-6.4h2.9v6.4h7.8l-0.4 2.55h-7.4v15.5c0 0.867 0.15 1.7 0.45 2.5v0c0.933 0.3 1.867 0.45 2.8 0.45v0c0.6 0 1.293-0.093 2.08-0.28 0.78-0.18 1.487-0.403 2.12-0.67v0l0.85 2.5c-0.567 0.3-1.283 0.567-2.15 0.8-0.867 0.233-1.667 0.35-2.4 0.35zM154.7 9.45c-1.6 0-2.967-0.283-4.1-0.85v0-1.25c0-1.067 0.15-2.05 0.45-2.95v0h2.2v2.35c0.6 0.1 1.3 0.15 2.1 0.15v0c0.533 0 1.267-0.067 2.2-0.2v0c0.733-1.767 1.717-4.367 2.95-7.8v0h-3.35c-1.733-4.233-3.183-8.043-4.35-11.43-1.167-3.38-2.267-6.97-3.3-10.77v0l3-0.3c1.833 6.933 3.967 13.55 6.4 19.85v0h2.5c2.1-6.3 3.95-12.917 5.55-19.85v0l3.05 0.3c-1.333 5.4-2.8 10.623-4.4 15.67-1.6 5.053-3.2 9.497-4.8 13.33v0c-0.533 1.233-1.35 2.167-2.45 2.8-1.1 0.633-2.317 0.95-3.65 0.95z" fill="#e1410d" fill-rule="nonzero" stroke="none" stroke-width="1" stroke-linecap="butt" stroke-linejoin="miter" stroke-miterlimit="10" stroke-dasharray="" stroke-dashoffset="0" font-family="none" font-weight="none" font-size="none" text-anchor="none" style="mix-blend-mode: normal" data-fill-palette-color="primary" opacity="1"></path></g></svg></g></svg></g></svg></g></svg></g><g transform="matrix(1,0,0,1,0,15.32767404387397)"><svg viewBox="0 0 231.74999999999997 170.344651912252" height="170.344651912252" width="231.74999999999997"><g><svg xmlns="http://www.w3.org/2000/svg" xmlns:xlink="http://www.w3.org/1999/xlink" version="1.1" x="0" y="0" viewBox="4.660196892413095 20.351000000000003 90.67443900708136 66.649" enable-background="new 0 0 100 100" xml:space="preserve" height="170.344651912252" width="231.74999999999997" class="icon-icon-0" data-fill-palette-color="accent" id="icon-0"><path d="M94.05 51.572L53.179 21.701c-1.806-1.8-4.998-1.8-6.805 0L6.192 50.883c-1.879 1.879-2.1 4.471-0.269 6.4 0.531 0.555 1.218 0.885 1.958 1.047 1.08 0.311 2.246 0.191 3.253-0.354 0.083-0.035 0.156-0.084 0.237-0.125 0.033-0.023 0.068-0.037 0.102-0.057 0.48-0.252 1.107-0.557 1.494-0.945L18 53.432v30.125C18 85.066 19.063 87 20.575 87h58.83C80.917 87 83 85.066 83 83.561V53.432l4.489 3.59c0.094 0.088 0.048 0.158 0.144 0.236l0.364 0.438c1.69 1.691 4.396 1.691 6.087 0S95.739 53.264 94.05 51.572zM49 54h15.101C66.115 54 68 54.729 68 56.743V64H49V54zM37.703 49.552c2.374 0 4.388 2.014 4.388 4.389 0 2.445-2.014 4.387-4.388 4.387s-4.388-1.941-4.388-4.387C33.315 51.565 35.329 49.552 37.703 49.552zM35.329 60H43v-4.837c0-1.152 0.922-2.016 2-2.016 1.152 0 2 0.863 2 2.016v5.609C47 62.067 45.759 64 44.536 64h-9.207c-1.15 0-2.014-0.885-2.014-2.035C33.315 60.885 34.179 60 35.329 60zM74 79h-4v-7H32v7h-4V50.984c0-1.295 0.706-2.445 2-2.445s2 1.15 2 2.445V66h38v-9.045c0-1.295 0.741-2.375 1.964-2.375 1.295 0 2.036 1.08 2.036 2.375V79z" fill="#e1410d" data-fill-palette-color="accent"></path></svg></g></svg></g></svg></g><defs></defs></svg><rect width="395.52" height="120.59676550805969" fill="none" stroke="none" visibility="hidden"></rect></g></svg></g></svg>